<?xml version="1.0" encoding="UTF-8"?>
<svg id="Capa_2" data-name="Capa 2" xmlns="http://www.w3.org/2000/svg" viewBox="0 0 103.21 103.21">
  <defs>
    <style>
      .cls-1 {
        fill: #ff5f26;
      }
    </style>
  </defs>
  <g id="Capa_1-2" data-name="Capa 1">
    <path class="cls-1" d="M97.04,0H6.17C2.76,0,0,2.76,0,6.17v90.87c0,3.41,2.76,6.17,6.17,6.17h90.87c3.41,0,6.17-2.76,6.17-6.17V6.17c0-3.41-2.76-6.17-6.17-6.17ZM30.37,71.54c0,.79-.35,1.19-1.06,1.19h-3.86c-.69,0-1.05-.4-1.05-1.19V28.08c0-.37.09-.65.28-.85.17-.21.44-.31.77-.31h3.86c.71,0,1.06.39,1.06,1.16v43.46ZM80.11,71.54c0,.79-.35,1.19-1.06,1.19h-3.86c-.7,0-1.06-.4-1.06-1.19v-28.38l-.4.97-11.39,27.47c-.28.69-.95,1.13-1.69,1.13h-6.65c-.74,0-1.41-.44-1.69-1.13l-12.07-29.14v29.08c0,.79-.36,1.19-1.06,1.19h-3.85c-.71,0-1.06-.4-1.06-1.19V28.08c0-.37.09-.65.27-.85.18-.21.44-.31.79-.31h3.85c.1,0,.19.02.27.03.51-.09.91.19,1.18.84l13.37,32.28v-31.99c0-.37.09-.65.26-.85.19-.21.46-.31.8-.31h3.85c.7,0,1.06.39,1.06,1.16v33.64l13.76-33.19.29-.71c.24-.59.58-.9,1.01-.9.02,0,.04,0,.06.01.03-.01.07-.01.1-.01h3.86c.71,0,1.06.39,1.06,1.16v43.46Z"/>
  </g>
</svg>