<?xml version="1.0" encoding="UTF-8"?>
<svg id="Capa_2" data-name="Capa 2" xmlns="http://www.w3.org/2000/svg" viewBox="0 0 433.4 103.21">
  <defs>
    <style>
      .cls-1 {
        fill: #ff5f26;
      }
    </style>
  </defs>
  <g id="Capa_1-2" data-name="Capa 1">
    <g>
      <path d="M3.12,14.54H.67c-.21,0-.38.07-.5.2-.11.13-.17.31-.17.54v27.61c0,.51.23.76.67.76h2.45c.45,0,.67-.25.67-.76V15.28c0-.49-.22-.74-.67-.74Z"/>
      <path d="M76.93,30.78h-2.27c-.46,0-.69.24-.69.73v7.14c-.69.53-1.58.95-2.67,1.26-1.09.3-2.2.45-3.33.45-2.04,0-3.9-.5-5.58-1.52-1.69-1.01-3.02-2.38-3.99-4.1-.97-1.73-1.46-3.61-1.46-5.65s.49-3.98,1.46-5.68c.97-1.71,2.31-3.06,4.02-4.05,1.7-.99,3.6-1.49,5.7-1.49,2.46,0,4.73.79,6.81,2.38.16.13.33.19.51.19.23,0,.39-.08.49-.25l1.34-1.93c.09-.11.13-.23.13-.37,0-.22-.12-.42-.35-.59-1.29-1.01-2.68-1.78-4.15-2.31-1.48-.53-3.08-.79-4.82-.79-2.72,0-5.23.66-7.52,1.99-2.29,1.32-4.11,3.12-5.45,5.4-1.33,2.28-2,4.78-2,7.5s.67,5.22,2.01,7.5c1.35,2.29,3.18,4.09,5.48,5.43,2.31,1.33,4.81,1.99,7.52,1.99,1.72,0,3.36-.25,4.89-.77,1.54-.52,2.95-1.24,4.22-2.18.25-.17.37-.42.37-.78v-8.77c0-.49-.22-.73-.67-.73Z"/>
      <path d="M40.53,14.76c-.14-.13-.31-.2-.51-.2h-2.27c-.23,0-.41.07-.53.2-.12.13-.18.29-.18.5v21.98L20.42,15.16c-.29-.4-.6-.6-.94-.6h-2.67c-.22,0-.39.07-.51.21-.13.13-.19.3-.19.49v27.63c0,.51.23.76.7.76h2.26c.47,0,.71-.25.71-.76v-22.7l16.85,22.89c.26.38.57.57.94.57h2.45c.47,0,.71-.25.71-.76V15.26c0-.21-.07-.37-.2-.5Z"/>
      <path d="M110.91,18.36c.48,0,.73-.23.73-.69v-2.45c0-.45-.25-.68-.73-.68h-19.18c-.44,0-.67.23-.67.68v27.73c0,.47.23.7.67.7h19.15c.49,0,.74-.23.74-.7v-2.48c0-.45-.25-.68-.74-.68h-16.03v-9.58h12.42c.25,0,.44-.06.59-.17.14-.1.21-.27.21-.51v-2.4c0-.23-.07-.41-.21-.52-.15-.12-.34-.18-.59-.18h-12.42v-8.07h16.06Z"/>
      <path d="M147.63,14.76c-.14-.13-.31-.2-.51-.2h-2.27c-.23,0-.4.07-.53.2-.12.13-.18.29-.18.5v21.98l-16.62-22.08c-.29-.4-.6-.6-.94-.6h-2.67c-.22,0-.39.07-.51.21-.12.13-.19.3-.19.49v27.63c0,.51.24.76.7.76h2.26c.48,0,.72-.25.72-.76v-22.7l16.84,22.89c.26.38.57.57.94.57h2.45c.47,0,.71-.25.71-.76V15.26c0-.21-.07-.37-.2-.5Z"/>
      <path d="M164.3,14.54h-2.44c-.22,0-.39.07-.5.2-.12.13-.18.31-.18.54v27.61c0,.51.23.76.68.76h2.44c.45,0,.67-.25.67-.76V15.28c0-.49-.22-.74-.67-.74Z"/>
      <path d="M164.3,59.91h-2.44c-.22,0-.39.06-.5.19-.12.13-.18.31-.18.54v27.62c0,.5.23.75.68.75h2.44c.45,0,.67-.25.67-.75v-27.62c0-.49-.22-.73-.67-.73Z"/>
      <path d="M198.21,18.36c.49,0,.73-.23.73-.69v-2.45c0-.45-.24-.68-.73-.68h-19.17c-.45,0-.67.23-.67.68v27.73c0,.47.22.7.67.7h19.15c.49,0,.73-.23.73-.7v-2.48c0-.45-.24-.68-.73-.68h-16.03v-9.58h12.42c.25,0,.44-.06.58-.17.15-.1.21-.27.21-.51v-2.4c0-.23-.06-.41-.21-.52-.14-.12-.33-.18-.58-.18h-12.42v-8.07h16.05Z"/>
      <path d="M226.78,32.19c1.04-.51,1.96-1.19,2.76-2.05.79-.87,1.41-1.84,1.83-2.91.43-1.07.65-2.17.65-3.3,0-1.66-.39-3.21-1.15-4.64-.77-1.44-1.84-2.59-3.21-3.45-1.36-.86-2.89-1.3-4.58-1.3h-11.87c-.43,0-.65.23-.65.68v27.73c0,.47.22.7.65.7h2.45c.45,0,.68-.23.68-.7v-9.85l8.89-.04,4.69,10.02c.11.21.22.36.33.45.12.08.26.12.42.12h2.78c.16,0,.29-.06.39-.17.11-.1.16-.23.16-.38,0-.1-.02-.19-.06-.27l-5.16-10.64ZM225.33,28.66c-.89.45-1.9.67-3.04.67h-7.95v-11.05h7.95c1.14,0,2.15.23,3.04.7.88.47,1.57,1.13,2.07,1.98.49.85.74,1.82.74,2.9s-.25,2.05-.74,2.88c-.5.83-1.19,1.47-2.07,1.92Z"/>
      <path d="M247.59,14.54h-2.45c-.21,0-.38.07-.5.2-.11.13-.17.31-.17.54v27.61c0,.51.22.76.67.76h2.45c.45,0,.67-.25.67-.76V15.28c0-.49-.22-.74-.67-.74Z"/>
      <path d="M286.07,42.81l-11.26-27.63c-.16-.41-.43-.62-.8-.62h-1.83c-.37,0-.63.21-.8.62l-11.46,27.63c-.05.11-.08.23-.08.35,0,.16.05.28.16.37.11.08.26.12.45.12h2.86c.35,0,.6-.2.75-.59l2.2-5.57h13.67l2.22,5.57c.14.39.38.59.74.59h2.65c.17,0,.32-.05.44-.13.11-.09.17-.22.17-.38,0-.06-.03-.16-.08-.33ZM267.71,33.74l5.43-13.38,5.3,13.38h-10.73Z"/>
      <path d="M146.18,60.55c-.04-.44-.28-.65-.71-.65h-3.32c-.29,0-.5.19-.64.57l-8.58,21.05-8.69-21.09c-.07-.21-.14-.35-.22-.42-.09-.08-.2-.11-.35-.11h-3.31c-.42,0-.66.21-.73.65l-3.1,27.7c-.04.5.18.75.65.75h2.33c.42,0,.65-.23.69-.69l2.41-22.09,8.6,21.05c.09.2.18.34.29.41.11.06.24.1.39.1h2.04c.15,0,.27-.04.37-.1.11-.07.2-.21.28-.41l8.71-21.07,2.28,22.13c.03.24.09.42.2.52.1.1.26.15.49.15h2.53c.47,0,.68-.24.64-.71l-3.25-27.74Z"/>
      <path d="M196.46,85.45h-14.32v-24.78c0-.5-.21-.75-.65-.75h-2.45c-.2,0-.36.07-.48.2-.13.14-.19.32-.19.55v27.64c0,.46.23.69.67.69h17.42c.25,0,.44-.06.57-.17.14-.12.21-.29.21-.52v-2.19c0-.44-.26-.67-.78-.67Z"/>
      <path d="M222.25,85.45h-14.32v-24.78c0-.5-.22-.75-.65-.75h-2.45c-.2,0-.37.07-.49.2-.12.14-.18.32-.18.55v27.64c0,.46.22.69.67.69h17.42c.24,0,.43-.06.57-.17.13-.12.2-.29.2-.52v-2.19c0-.44-.26-.67-.77-.67Z"/>
      <path d="M256.19,88.16l-11.27-27.63c-.16-.41-.43-.61-.79-.61h-1.84c-.37,0-.63.2-.8.61l-11.46,27.63c-.06.11-.09.23-.09.35,0,.16.06.29.17.37.1.08.25.12.45.12h2.85c.36,0,.61-.2.76-.59l2.2-5.57h13.67l2.23,5.57c.13.39.38.59.73.59h2.66c.17,0,.32-.04.43-.13.12-.09.18-.22.18-.38,0-.05-.03-.16-.08-.33ZM237.82,79.09l5.43-13.38,5.3,13.38h-10.73Z"/>
      <path d="M280.91,77.54c1.04-.5,1.96-1.19,2.76-2.05.8-.86,1.41-1.83,1.84-2.91.42-1.07.64-2.17.64-3.3,0-1.66-.39-3.21-1.15-4.64-.77-1.44-1.84-2.58-3.21-3.45-1.36-.86-2.89-1.29-4.57-1.29h-11.87c-.44,0-.66.22-.66.67v27.74c0,.46.22.69.66.69h2.44c.45,0,.68-.23.68-.69v-9.85l8.89-.04,4.69,10.01c.11.22.22.37.33.45.12.08.26.12.42.12h2.78c.16,0,.29-.05.39-.16.11-.11.16-.24.16-.39,0-.1-.02-.18-.06-.26l-5.16-10.65ZM279.46,74.01c-.89.45-1.9.67-3.04.67h-7.95v-11.05h7.95c1.14,0,2.15.23,3.04.7.88.47,1.57,1.13,2.07,1.98.49.85.74,1.82.74,2.91s-.25,2.04-.74,2.87c-.5.83-1.19,1.47-2.07,1.92Z"/>
      <path class="cls-1" d="M427.23,0h-90.87c-3.41,0-6.17,2.76-6.17,6.17v90.87c0,3.41,2.76,6.17,6.17,6.17h90.87c3.41,0,6.17-2.76,6.17-6.17V6.17c0-3.41-2.76-6.17-6.17-6.17ZM360.56,71.54c0,.79-.35,1.19-1.06,1.19h-3.86c-.69,0-1.05-.4-1.05-1.19V28.08c0-.37.09-.65.28-.85.17-.21.44-.31.77-.31h3.86c.71,0,1.06.39,1.06,1.16v43.46ZM410.3,71.54c0,.79-.35,1.19-1.06,1.19h-3.86c-.7,0-1.06-.4-1.06-1.19v-28.38l-.4.97-11.39,27.47c-.28.69-.95,1.13-1.69,1.13h-6.65c-.74,0-1.41-.44-1.69-1.13l-12.07-29.14v29.08c0,.79-.36,1.19-1.06,1.19h-3.85c-.71,0-1.06-.4-1.06-1.19V28.08c0-.37.09-.65.27-.85.18-.21.44-.31.79-.31h3.85c.1,0,.19.02.27.03.51-.09.91.19,1.18.84l13.37,32.28v-31.99c0-.37.09-.65.26-.85.19-.21.46-.31.8-.31h3.85c.7,0,1.06.39,1.06,1.16v33.64l13.76-33.19.29-.71c.24-.59.58-.9,1.01-.9.02,0,.04,0,.06.01.03-.01.07-.01.1-.01h3.86c.71,0,1.06.39,1.06,1.16v43.46Z"/>
    </g>
  </g>
</svg>